<mxfile host="app.diagrams.net" modified="2023-10-17T04:36:16.952Z" agent="Mozilla/5.0 (Windows NT 10.0; Win64; x64; rv:109.0) Gecko/20100101 Firefox/118.0" etag="k8yj8qDNzGyMZ-gdFYK1" version="22.0.4" type="github">
  <diagram name="Page-1" id="KCGKnKcT_2AfuErS1Zv8">
    <mxGraphModel dx="1114" dy="557" grid="1" gridSize="10" guides="1" tooltips="1" connect="1" arrows="1" fold="1" page="1" pageScale="1" pageWidth="850" pageHeight="1100" math="0" shadow="0">
      <root>
        <mxCell id="0" />
        <mxCell id="1" parent="0" />
        <mxCell id="208dKDHgdwbnrAlmsE2l-20" style="edgeStyle=orthogonalEdgeStyle;rounded=0;orthogonalLoop=1;jettySize=auto;html=1;exitX=0.5;exitY=1;exitDx=0;exitDy=0;exitPerimeter=0;" edge="1" parent="1" source="208dKDHgdwbnrAlmsE2l-4" target="208dKDHgdwbnrAlmsE2l-18">
          <mxGeometry relative="1" as="geometry" />
        </mxCell>
        <mxCell id="208dKDHgdwbnrAlmsE2l-4" value="Start" style="strokeWidth=2;html=1;shape=mxgraph.flowchart.terminator;whiteSpace=wrap;" vertex="1" parent="1">
          <mxGeometry x="340" y="40" width="100" height="40" as="geometry" />
        </mxCell>
        <mxCell id="208dKDHgdwbnrAlmsE2l-8" value="masukan nilai bil" style="shape=parallelogram;html=1;strokeWidth=2;perimeter=parallelogramPerimeter;whiteSpace=wrap;rounded=1;arcSize=12;size=0.23;" vertex="1" parent="1">
          <mxGeometry x="310" y="200" width="150" height="40" as="geometry" />
        </mxCell>
        <mxCell id="208dKDHgdwbnrAlmsE2l-25" style="edgeStyle=orthogonalEdgeStyle;rounded=0;orthogonalLoop=1;jettySize=auto;html=1;exitX=1;exitY=0.5;exitDx=0;exitDy=0;exitPerimeter=0;" edge="1" parent="1" source="208dKDHgdwbnrAlmsE2l-11" target="208dKDHgdwbnrAlmsE2l-12">
          <mxGeometry relative="1" as="geometry" />
        </mxCell>
        <mxCell id="208dKDHgdwbnrAlmsE2l-28" style="edgeStyle=orthogonalEdgeStyle;rounded=0;orthogonalLoop=1;jettySize=auto;html=1;exitX=0.5;exitY=1;exitDx=0;exitDy=0;exitPerimeter=0;entryX=0.5;entryY=0;entryDx=0;entryDy=0;" edge="1" parent="1" source="208dKDHgdwbnrAlmsE2l-11" target="208dKDHgdwbnrAlmsE2l-27">
          <mxGeometry relative="1" as="geometry" />
        </mxCell>
        <mxCell id="208dKDHgdwbnrAlmsE2l-11" value="bil mod 4== 0" style="strokeWidth=2;html=1;shape=mxgraph.flowchart.decision;whiteSpace=wrap;" vertex="1" parent="1">
          <mxGeometry x="325" y="270" width="125" height="60" as="geometry" />
        </mxCell>
        <mxCell id="208dKDHgdwbnrAlmsE2l-35" style="edgeStyle=elbowEdgeStyle;rounded=0;orthogonalLoop=1;jettySize=auto;html=1;entryX=1.01;entryY=0.675;entryDx=0;entryDy=0;entryPerimeter=0;" edge="1" parent="1" source="208dKDHgdwbnrAlmsE2l-12" target="208dKDHgdwbnrAlmsE2l-30">
          <mxGeometry relative="1" as="geometry">
            <mxPoint x="680" y="440" as="targetPoint" />
            <Array as="points">
              <mxPoint x="540" y="440" />
            </Array>
          </mxGeometry>
        </mxCell>
        <mxCell id="208dKDHgdwbnrAlmsE2l-12" value="Genap" style="shape=parallelogram;html=1;strokeWidth=2;perimeter=parallelogramPerimeter;whiteSpace=wrap;rounded=1;arcSize=12;size=0.23;" vertex="1" parent="1">
          <mxGeometry x="490" y="275" width="100" height="50" as="geometry" />
        </mxCell>
        <mxCell id="208dKDHgdwbnrAlmsE2l-18" value="Deklarasi variabel bil" style="rounded=0;whiteSpace=wrap;html=1;" vertex="1" parent="1">
          <mxGeometry x="330" y="120" width="120" height="40" as="geometry" />
        </mxCell>
        <mxCell id="208dKDHgdwbnrAlmsE2l-23" style="edgeStyle=orthogonalEdgeStyle;rounded=0;orthogonalLoop=1;jettySize=auto;html=1;exitX=0.5;exitY=1;exitDx=0;exitDy=0;entryX=0.553;entryY=-0.1;entryDx=0;entryDy=0;entryPerimeter=0;" edge="1" parent="1" source="208dKDHgdwbnrAlmsE2l-18" target="208dKDHgdwbnrAlmsE2l-8">
          <mxGeometry relative="1" as="geometry" />
        </mxCell>
        <mxCell id="208dKDHgdwbnrAlmsE2l-24" style="edgeStyle=orthogonalEdgeStyle;rounded=0;orthogonalLoop=1;jettySize=auto;html=1;exitX=0.5;exitY=1;exitDx=0;exitDy=0;entryX=0.5;entryY=0;entryDx=0;entryDy=0;entryPerimeter=0;" edge="1" parent="1" source="208dKDHgdwbnrAlmsE2l-8" target="208dKDHgdwbnrAlmsE2l-11">
          <mxGeometry relative="1" as="geometry" />
        </mxCell>
        <mxCell id="208dKDHgdwbnrAlmsE2l-27" value="Ganjil" style="shape=parallelogram;html=1;strokeWidth=2;perimeter=parallelogramPerimeter;whiteSpace=wrap;rounded=1;arcSize=12;size=0.23;" vertex="1" parent="1">
          <mxGeometry x="337" y="390" width="100" height="50" as="geometry" />
        </mxCell>
        <mxCell id="208dKDHgdwbnrAlmsE2l-30" value="End" style="strokeWidth=2;html=1;shape=mxgraph.flowchart.terminator;whiteSpace=wrap;" vertex="1" parent="1">
          <mxGeometry x="340" y="470" width="100" height="40" as="geometry" />
        </mxCell>
        <mxCell id="208dKDHgdwbnrAlmsE2l-31" style="edgeStyle=orthogonalEdgeStyle;rounded=0;orthogonalLoop=1;jettySize=auto;html=1;exitX=0.5;exitY=1;exitDx=0;exitDy=0;entryX=0.5;entryY=0;entryDx=0;entryDy=0;entryPerimeter=0;" edge="1" parent="1" source="208dKDHgdwbnrAlmsE2l-27" target="208dKDHgdwbnrAlmsE2l-30">
          <mxGeometry relative="1" as="geometry" />
        </mxCell>
        <mxCell id="208dKDHgdwbnrAlmsE2l-36" value="y" style="text;strokeColor=none;align=center;fillColor=none;html=1;verticalAlign=middle;whiteSpace=wrap;rounded=0;" vertex="1" parent="1">
          <mxGeometry x="430" y="275" width="60" height="30" as="geometry" />
        </mxCell>
        <mxCell id="208dKDHgdwbnrAlmsE2l-37" value="t" style="text;strokeColor=none;align=center;fillColor=none;html=1;verticalAlign=middle;whiteSpace=wrap;rounded=0;" vertex="1" parent="1">
          <mxGeometry x="360" y="350" width="20" height="30" as="geometry" />
        </mxCell>
      </root>
    </mxGraphModel>
  </diagram>
</mxfile>
